# xmcd
#
# Track frame offsets:
#	150
#	14317
#	37052
#	55835
#	74740
#	89015
#	106521
#	123770
#	143587
#	159317
#	174302
#	184475
#	196754
#
# Disc length: 2844 seconds
#
# Revision: 0
# Processed by: cddbd v1.5.2PL0 Copyright (c) Steve Scherf et al.
# Submitted via: audiograbber 1.83.01
#
DISCID=ab0b1a0d
DTITLE=Jürgen Drews - Mein Musikalischer Lebenslauf
DYEAR=1977
DGENRE=Pop
TTITLE0=Somebody Loves You
TTITLE1=Let It Die
TTITLE2=Schreib Mir Keine Briefe
TTITLE3=Dieser Tag Hat So Vieles Verändert
TTITLE4=Zeit Ist Eine Lange Straße
TTITLE5=Silvia's Mother
TTITLE6=Pasadena Town
TTITLE7=Es Ist Kalt In Meinem Zimmer
TTITLE8=Ein Bett Im Kornfeld
TTITLE9=Barfuss Durch Den Sommer
TTITLE10=Hallo Uri Uno
TTITLE11=Amigo
TTITLE12=Unnahbarer Engel
EXTD=
EXTT0=
EXTT1=
EXTT2=
EXTT3=
EXTT4=
EXTT5=
EXTT6=
EXTT7=
EXTT8=
EXTT9=
EXTT10=
EXTT11=
EXTT12=
PLAYORDER=
